<?xml version="1.0" encoding="iso-8859-1"?>
<!-- Generator: Adobe Illustrator 19.0.0, SVG Export Plug-In . SVG Version: 6.00 Build 0)  -->
<svg xmlns="http://www.w3.org/2000/svg" xmlns:xlink="http://www.w3.org/1999/xlink" version="1.1" id="Capa_1" x="0px" y="0px" viewBox="0 0 512 512" style="enable-background:new 0 0 512 512;" xml:space="preserve" width="512px" height="512px">
<g>
	<g>
		<path d="M63.624,32.063c-12.983,0-23.546,10.563-23.546,23.546c0,12.983,10.563,23.546,23.546,23.546S87.17,68.592,87.17,55.609    C87.17,42.625,76.608,32.063,63.624,32.063z M63.624,64.125c-4.696,0-8.517-3.82-8.517-8.517c0-4.696,3.82-8.517,8.517-8.517    s8.517,3.82,8.517,8.517C72.141,60.305,68.32,64.125,63.624,64.125z" fill="#878787"/>
	</g>
</g>
<g>
	<g>
		<path d="M264.016,32.063c-12.983,0-23.546,10.563-23.546,23.546c0,12.983,10.563,23.546,23.546,23.546    c12.983,0,23.546-10.563,23.546-23.546C287.562,42.625,276.999,32.063,264.016,32.063z M264.016,64.125    c-4.696,0-8.517-3.82-8.517-8.517c0-4.696,3.82-8.517,8.517-8.517c4.696,0,8.517,3.82,8.517,8.517    C272.532,60.305,268.712,64.125,264.016,64.125z" fill="#878787"/>
	</g>
</g>
<g>
	<g>
		<path d="M167.828,0c-12.983,0-23.546,10.563-23.546,23.546c0,12.983,10.563,23.546,23.546,23.546    c12.983,0,23.546-10.563,23.546-23.546C191.374,10.563,180.811,0,167.828,0z M167.828,32.063c-4.696,0-8.517-3.82-8.517-8.517    c0-4.696,3.82-8.517,8.517-8.517s8.517,3.82,8.517,8.517C176.344,28.242,172.524,32.063,167.828,32.063z" fill="#878787"/>
	</g>
</g>
<g>
	<g>
		<path d="M215.009,53.166c-1.035-3-3.927-5.066-7.103-5.072c-3.174-0.006-6.072,2.08-7.103,5.072    c-1.108,3.212,0.147,6.791,2.935,8.695c2.838,1.913,6.766,1.582,9.268-0.736C215.166,59.122,215.97,55.951,215.009,53.166z" fill="#878787"/>
	</g>
</g>
<g>
	<g>
		<path d="M116.248,41.602c-2.51-1.902-6.019-2-8.65-0.285c-3.007,1.961-4.148,5.841-2.823,9.151    c1.168,2.762,3.929,4.647,6.944,4.639c3.339-0.009,6.352-2.29,7.236-5.511C119.763,46.653,118.684,43.448,116.248,41.602z" fill="#878787"/>
	</g>
</g>
<g>
	<g>
		<path d="M148.828,66.068c-2.526-2.269-6.383-2.576-9.214-0.681c-2.97,1.987-4.097,5.83-2.776,9.129    c1.236,2.924,4.228,4.822,7.412,4.622c2.893-0.182,5.501-2.085,6.54-4.794C151.886,71.483,151.114,68.123,148.828,66.068z" fill="#878787"/>
	</g>
</g>
<g>
	<g>
		<path d="M477.306,387.059c-22.106-34.048-53.182-61.114-89.87-78.27c-3.757-1.757-8.231-0.136-9.991,3.624    c-1.758,3.759-0.135,8.232,3.624,9.99c68.129,31.858,112.931,99.815,115.758,174.568H431.7c-0.223-6.586-0.73-13.124-1.535-19.592    c11.267-9.087,17.71-22.475,17.71-37.019c0-18.265-10.19-34.467-26.035-42.458c1.322-4.399,1.988-8.966,1.988-13.652    c0-26.242-21.351-47.593-47.593-47.593c-0.167,0-0.336,0.001-0.504,0.003c0.002-0.168,0.003-0.337,0.003-0.504    c0-26.242-21.351-47.593-47.593-47.593c-4.686,0-9.253,0.666-13.652,1.988c-4.953-9.822-13.064-17.469-22.864-21.865    l11.354-133.423h1.114c12.983,0,23.546-10.563,23.546-23.546s-10.563-23.546-23.546-23.546H31.562    c-12.983,0-23.546,10.563-23.546,23.546s10.563,23.546,23.546,23.546h0.965l14.9,233.432c0.014,0.221,0.041,0.439,0.074,0.655    C16.728,407.555,0,454.732,0,504.485C0,508.636,3.365,512,7.515,512h496.971c4.151,0,7.515-3.364,7.515-7.515    C512,462.624,500.003,422.017,477.306,387.059z M376.235,351.687c17.956,0,32.564,14.608,32.564,32.564    c0,5.074-1.141,9.942-3.392,14.469c-0.195,0.394-0.345,0.803-0.467,1.216c-9.536-17.181-21.49-33.15-35.7-47.478    C371.557,351.952,373.906,351.687,376.235,351.687z M303.147,302.476c1.346,4.354,6.436,6.542,10.525,4.509    c4.528-2.25,9.395-3.392,14.469-3.392c17.956,0,32.564,14.608,32.564,32.564c0,2.456-0.285,4.933-0.848,7.363    c-0.001,0.006-0.002,0.012-0.003,0.018c-31.784-28.495-70.652-46.638-112.469-52.707c6.089-7.045,15.024-11.285,24.646-11.285    C286.401,279.546,298.906,288.76,303.147,302.476z M173.142,219.625c-2.935-2.934-7.693-2.934-10.627,0L59.544,322.595    l-6.299-98.692l88.639-88.639h104.991l-51.296,51.296c-2.736,2.736-2.918,7.255-0.4,10.197c2.81,3.281,7.971,3.487,11.027,0.432    l61.925-61.925h19.767l-5.412,63.583l-87.91,87.909c-0.883,0.883-1.494,1.932-1.847,3.045    c-48.907,5.189-94.224,26.74-129.489,62.004c-0.582,0.582-1.146,1.176-1.721,1.763l-0.699-10.993l112.322-112.322    C176.077,227.317,176.077,222.56,173.142,219.625z M51.969,203.923l-4.383-68.659h73.042L51.969,203.923z M280.509,222.081    l-3.632,42.68c-1.596-0.159-3.212-0.245-4.845-0.245c-17.418,0-33.305,9.499-41.634,24.535c-4.797-0.316-9.623-0.488-14.475-0.488    c-0.641,0-1.279,0.018-1.92,0.023L280.509,222.081z M31.562,120.235c-4.696,0-8.517-3.82-8.517-8.517s3.82-8.517,8.517-8.517    h272.532c4.696,0,8.517,3.82,8.517,8.517s-3.82,8.517-8.517,8.517H31.562z M320.626,496.971H111.217v-40.579    c0-31.215,25.396-56.611,56.611-56.611h96.188c31.215,0,56.611,25.396,56.611,56.611V496.971z M335.656,496.971v-40.579    c0-39.502-32.138-71.64-71.64-71.64h-96.188c-39.502,0-71.64,32.138-71.64,71.64v40.579h-81.02    c3.965-107.307,92.497-193.378,200.754-193.378s196.789,86.071,200.753,193.378H335.656z M409.787,409.197    c0.043,0.014,0.084,0.034,0.128,0.047c13.716,4.241,22.93,16.746,22.93,31.116c0,6.785-2.057,13.201-5.803,18.572    C423.349,441.647,417.556,424.967,409.787,409.197z" fill="#878787"/>
	</g>
</g>
<g>
	<g>
		<path d="M222.865,357.328c-1.244-2.951-4.287-4.859-7.499-4.616c-3.139,0.238-5.837,2.456-6.681,5.487    c-0.801,2.872,0.228,6.066,2.587,7.902c2.631,2.05,6.354,2.135,9.062,0.176C223.135,364.251,224.142,360.519,222.865,357.328z" fill="#878787"/>
	</g>
</g>
<g>
	<g>
		<path d="M294.996,357.328c-1.184-2.967-4.32-4.856-7.488-4.616c-3.268,0.248-6.05,2.644-6.771,5.84    c-1.473,6.53,6.103,11.668,11.616,7.809C295.205,364.366,296.354,360.555,294.996,357.328z" fill="#878787"/>
	</g>
</g>
<g>
	<g>
		<path d="M150.714,357.328c-1.187-2.966-4.318-4.856-7.489-4.616c-3.131,0.237-5.849,2.456-6.682,5.487    c-1.849,6.724,6.009,12.16,11.649,8.08C150.966,364.272,152.049,360.491,150.714,357.328z" fill="#878787"/>
	</g>
</g>
<g>
	<g>
		<path d="M222.865,325.265c-2.531-5.999-11.394-6.095-13.887,0c-1.246,3.046-0.343,6.632,2.211,8.707    c2.42,1.966,5.915,2.222,8.593,0.616C222.956,332.686,224.232,328.681,222.865,325.265z" fill="#878787"/>
	</g>
</g>
<g>
	<g>
		<path d="M262.944,325.265c-1.192-2.833-4.045-4.712-7.128-4.634c-3.068,0.077-5.86,2.083-6.887,4.978    c-1.052,2.965-0.118,6.34,2.309,8.339c2.519,2.074,6.218,2.256,8.933,0.446C263.136,332.414,264.257,328.556,262.944,325.265z" fill="#878787"/>
	</g>
</g>
<g>
	<g>
		<path d="M182.777,325.265c-1.138-2.845-4.071-4.711-7.119-4.634c-3.067,0.077-5.86,2.083-6.887,4.978    c-1.052,2.965-0.118,6.34,2.309,8.339c2.519,2.074,6.218,2.256,8.932,0.446C182.945,332.436,184.153,328.525,182.777,325.265z" fill="#878787"/>
	</g>
</g>
<g>
</g>
<g>
</g>
<g>
</g>
<g>
</g>
<g>
</g>
<g>
</g>
<g>
</g>
<g>
</g>
<g>
</g>
<g>
</g>
<g>
</g>
<g>
</g>
<g>
</g>
<g>
</g>
<g>
</g>
</svg>
